# xmcd
#
# Track frame offsets:
#	150
#	17584
#	33992
#	49491
#	67917
#	81771
#	99031
#	112920
#	128280
#	140934
#
# Disc length: 2496 seconds
#
# Revision: 2
# Processed by: cddbd v1.4PL0 Copyright (c) Steve Scherf et al.
# Submitted via: audiograbber 1.80
#
DISCID=7609be0a
DTITLE=Between - Between us
DYEAR=1900
DGENRE=
TTITLE0=Hard world
TTITLE1=Way to the shore
TTITLE2=Without you
TTITLE3=What about me
TTITLE4=Burnin' for love
TTITLE5=Fallin' in love
TTITLE6=Reason to be
TTITLE7=Visions
TTITLE8=Run run run
TTITLE9=Haven't seen my baby
EXTD=
EXTT0=
EXTT1=
EXTT2=
EXTT3=
EXTT4=
EXTT5=
EXTT6=
EXTT7=
EXTT8=
EXTT9=
PLAYORDER=
